<svg xmlns="http://www.w3.org/2000/svg" xmlns:xlink="http://www.w3.org/1999/xlink" viewBox="0 0 28 17.8"><defs><path id="a" d="M-338.7 76.6l-4.4 4.4-4.4-4.4-1.1 1.1 4.4 4.4-4.4 4.4 1.1 1 4.4-4.3 4.4 4.3 1.1-1-4.4-4.4 4.4-4.4z"/></defs><clipPath id="b"><use xlink:href="#a" overflow="visible"/></clipPath><g clip-path="url(#b)"><defs><path id="c" d="M-625.6-846.4h1280v1659h-1280z"/></defs></g><g><path fill="#12254A" d="M28 17.8H0V0h28v17.8zM2.5 15.3h23.1V2.5H2.5v12.8zm20.4-2.6H10.2v-2.5H23v2.5zm-15.3 0H5.1v-2.5h2.6v2.5zm15.3-5.1H10.2V5.1H23v2.5zm-15.3 0H5.1V5.1h2.6v2.5z"/></g></svg>