<svg xmlns="http://www.w3.org/2000/svg" xmlns:xlink="http://www.w3.org/1999/xlink" viewBox="0 0 20 31.5"><defs><path id="a" d="M-328 118.2l-4.3 4.4-4.4-4.4-1.1 1.1 4.4 4.4-4.4 4.4 1.1 1.1 4.4-4.4 4.3 4.4 1.1-1.1-4.4-4.4 4.4-4.4z"/></defs><clipPath id="b"><use xlink:href="#a" overflow="visible"/></clipPath><g clip-path="url(#b)"><defs><path id="c" d="M-614.8-804.8h1280v1659h-1280z"/></defs></g><g><path fill="#12254A" d="M11.6 31.5H8.4L1.6 16.2C1 14.9 0 12.6 0 10 0 4.5 4.5 0 10 0s10 4.5 10 10c0 2.6-1 4.9-1.6 6.2l-.2.4-6.6 14.9zM10 2.8C6 2.8 2.8 6 2.8 10c0 2 .8 3.8 1.4 5.1l.2.4L10 28.3 15.8 15c.6-1.2 1.4-3 1.4-5.1C17.2 6 14 2.8 10 2.8zm0 11.5c-2.3 0-4.3-1.9-4.3-4.3s2-4.3 4.3-4.3 4.3 1.9 4.3 4.3-2 4.3-4.3 4.3zm0-5.8c-.8 0-1.5.7-1.5 1.5s.7 1.5 1.5 1.5 1.5-.7 1.5-1.5-.7-1.5-1.5-1.5z"/></g></svg>